<svg id="visual" viewBox="0 0 900 600" width="900" height="600" xmlns="http://www.w3.org/2000/svg" xmlns:xlink="http://www.w3.org/1999/xlink" version="1.1"><path d="M0 163L100 163L100 151L200 151L200 157L300 157L300 163L400 163L400 169L500 169L500 157L600 157L600 169L700 169L700 169L800 169L800 145L900 145L900 163L900 0L900 0L800 0L800 0L700 0L700 0L600 0L600 0L500 0L500 0L400 0L400 0L300 0L300 0L200 0L200 0L100 0L100 0L0 0Z" fill="#015871"></path><path d="M0 265L100 265L100 265L200 265L200 271L300 271L300 271L400 271L400 265L500 265L500 271L600 271L600 277L700 277L700 271L800 271L800 259L900 259L900 259L900 161L900 143L800 143L800 167L700 167L700 167L600 167L600 155L500 155L500 167L400 167L400 161L300 161L300 155L200 155L200 149L100 149L100 161L0 161Z" fill="#19485b"></path><path d="M0 331L100 331L100 331L200 331L200 337L300 337L300 343L400 343L400 337L500 337L500 343L600 343L600 343L700 343L700 337L800 337L800 325L900 325L900 331L900 257L900 257L800 257L800 269L700 269L700 275L600 275L600 269L500 269L500 263L400 263L400 269L300 269L300 269L200 269L200 263L100 263L100 263L0 263Z" fill="#1f3945"></path><path d="M0 409L100 409L100 409L200 409L200 427L300 427L300 421L400 421L400 421L500 421L500 421L600 421L600 421L700 421L700 427L800 427L800 415L900 415L900 415L900 329L900 323L800 323L800 335L700 335L700 341L600 341L600 341L500 341L500 335L400 335L400 341L300 341L300 335L200 335L200 329L100 329L100 329L0 329Z" fill="#202b30"></path><path d="M0 601L100 601L100 601L200 601L200 601L300 601L300 601L400 601L400 601L500 601L500 601L600 601L600 601L700 601L700 601L800 601L800 601L900 601L900 601L900 413L900 413L800 413L800 425L700 425L700 419L600 419L600 419L500 419L500 419L400 419L400 419L300 419L300 425L200 425L200 407L100 407L100 407L0 407Z" fill="#1d1d1d"></path></svg>